<svg width="29" height="32" viewBox="0 0 29 32" fill="none" xmlns="http://www.w3.org/2000/svg">
<path d="M27.721 9.88844L24.5266 0H14.2057L17.3957 9.88844H27.721ZM14.2057 0H3.88624L0.697712 9.88844H11.0172L14.2057 0ZM0.697712 9.88844C-0.229706 12.7626 -0.229973 15.8588 0.696951 18.7332C1.62387 21.6075 3.43038 24.1123 5.85744 25.8884L9.04598 16L0.697712 9.88844ZM27.7152 9.88844L19.361 16L22.551 25.8884C24.9796 24.1134 26.7879 21.6091 27.7166 18.7348C28.6454 15.8605 28.6469 12.7637 27.721 9.88844H27.7152ZM5.85744 25.8884L14.2057 32L22.5554 25.8884L14.2057 19.7769L5.85744 25.8884Z" fill="#000000"/>
</svg>
